<svg xmlns="http://www.w3.org/2000/svg" width="40" height="40" fill="none" viewBox="0 0 40 40"><g fill="#C5C5C5" clip-path="url(#clip0_813_172)"><path d="M4.25 21.373c1.143 1.453-.657 2.265-.837 2.875-.585 1.974 1.271 2.67 2.877 2.834 1.923.196 6.647-1.35 8.026-2.77.331-.342 1.168-1.829 1.338-1.875.808-.223 1.873.074 1.94 1.026.096 1.328-.92 1.162-1.69 1.688-1.487 1.019-2.851 4.95-2.997 6.71-.094 1.126-.058 3.598.848 4.372 1.812 1.547 3.35-2.393 5.05-.375 1.393 1.657-.074 4.146-2.068 4.142-.99-.002-3.101-1.285-3.744-2.07-.938-1.148-1.6-3.139-1.75-4.596-.23-2.23.993-4.36 1.662-6.416-.176-.16-2.292.966-2.72 1.108-3.654 1.202-9.58.15-10.129-4.423-.338-2.816 2.825-3.97 4.195-2.228v-.002ZM27.11 26.918c-.215.213.968 2.451 1.103 2.909.727 2.488.603 5.608-.948 7.785-.824 1.157-3.27 2.683-4.69 2.317-2.488-.642-2.467-4.733-.048-4.63 1.29.054 1.499 1.88 3.228 1.177 1.138-.465 1.362-2.418 1.37-3.493.015-1.968-1.22-6.615-2.91-7.748-.969-.65-2.131-.323-1.735-2.102.183-.823 1.136-.911 1.824-.6.398.182 1.27 1.81 1.965 2.329 1.32.985 5.654 2.358 7.265 2.226.774-.064 2.688-.532 3.01-1.295.667-1.577-.761-1.985-.986-2.739-.772-2.595 3.116-3.287 4.17-1.179.903 1.806-.667 4.433-2.239 5.422-2.385 1.5-5.06 1.584-7.66.727-.418-.138-2.555-1.27-2.72-1.108v.002ZM1.574 13.363c1.688-1.683 4.258-2.133 6.566-1.93 1.701.15 3.245.976 4.769 1.676-.438-1.8-1.49-3.645-1.683-5.5-.18-1.728.782-4.744 2.05-5.98 1.27-1.234 4.399-2.565 5.62-.695.669 1.024.762 2.084-.094 3.037-1.768 1.97-2.634-1.054-4.258-.718-1.76.364-1.751 3.737-1.61 5.074.15 1.405 1.37 4.873 2.333 5.881.901.944 2.531.642 2.313 2.332-.126.974-1.382 1.164-2.05.763-.234-.14-1-1.569-1.406-1.955-1.064-1.015-4.528-2.243-6.002-2.405-1.784-.196-5.526-.116-4.705 2.644.127.429.893.718 1.043 1.382.67 2.953-4.286 3.164-4.456-.047-.066-1.259.705-2.703 1.57-3.565v.006Z"/><path d="M30.106 31.023c.413-.122.572.425.693.7.675 1.525 1.114 3.822 2.787 4.686 1.776.918 3.776-1.168 2.965-2.957-.075-.163-1.199-1.241-1.415-1.387-.56-.376-4.075-1.632-4.092-1.882-.026-.379.57-.155.703-.15 1.048.05 2.273.154 3.308.053.79-.077 1.675-.578 2.245-.58 1.793-.004 3.58 2.44 1.875 3.76-.406.314-.873.297-1.217.65 2.395 1.284 1.563 3.28 1.492 5.504-2.318.07-3.983.726-5.514-1.489-.234-.002-.36 1.198-.79 1.496-.965.668-2.41.26-2.992-.701-1.127-1.86-.009-2.61.135-4.439.09-1.134-.133-2.153-.183-3.26v-.005ZM4.4 9.751c-.114.026-.518.383-1.017.478-3.133.59-4.766-3.47-1.506-4.023.048-.561-.615-.682-.933-1.026C-.204 3.938.647 2.098.568.61 2.28.754 3.338-.425 4.961.8c.29.218.966 1.343 1.215 1.117.51-3.311 4.635-1.727 4.1 1.39-.048.28-.295.495-.343.774-.271 1.605-.313 3.122-.02 4.737-.416.086-.416-.21-.57-.457-.637-1.026-.868-2.642-1.674-3.739-1.22-1.664-3.344-2.039-4.25.045C2.164 7.552 7.19 8.552 8.79 9.662c.03.613-.382.091-.466.091-.977 0-3.136-.18-3.925 0v-.002ZM8.79 29.903c.536.519-2.535 1.46-2.8 1.588-1.659.804-3.558 2.215-2.296 4.155 1.262 1.94 3.312.73 4.282-.866.514-.845.727-1.94 1.114-2.806.112-.252.428-1.063.82-.951-.29 1.615-.25 3.132.021 4.737.047.281.296.494.344.774.527 3.069-3.205 4.65-4.381 1.394-1.077 2.348-3.25 1.47-5.329 1.49l-.148-3.974 1.46-1.714c-3.316-.58-1.329-4.677 1.348-4.148.419.082 1.381.648 1.75.694.134.017 1.605 0 1.824-.013.609-.04 1.368-.28 1.99-.36ZM12.531 19.827l-2.011.694c-1.155.08-3.709 1.075-4.634.248-.529-.473-.342-1.686.296-1.966 2.08-.332 4.321.524 6.35 1.024ZM19.819 27.476c.815.808.762 2.056.948 3.063.06.325.31.528.368.939.058.41.054 1.865-.047 2.21-.178.603-1.383.678-1.834.413-1.058-.621.417-5.487.565-6.625ZM18.63 27.218c.156-.157.195-.463.444-.489-.012 1.043-1.952 5.219-3.374 4.211-1.155-.819 1.637-2.412 2.075-2.802.246-.22.566-.627.856-.92ZM13.279 20.761c-.65.621-1.351 1.196-1.968 1.858-.33.355-1.63 2.623-2.44 1.51-.923-1.273 3.367-3.435 4.406-3.368h.002ZM20.945 26.73l3.26 2.994c.615.888.286 1.572-.841 1.214-1.013-.323-2.306-3.129-2.419-4.209ZM11.884 17.669c.282.319.596.597.884.905.129.138.637.304.034.322-1.242-.445-5.275-1.906-3.51-3.522.782-.194 2.076 1.71 2.592 2.295Z"/></g><defs><clipPath id="clip0_813_172"><path fill="#fff" d="M0 40V0h40v40z"/></clipPath></defs></svg>